<svg width="197" height="58" viewBox="0 0 197 58" fill="none" xmlns="http://www.w3.org/2000/svg">
<path d="M68.5005 41.7852C66.2355 41.7852 64.2873 41.3053 62.6557 40.3456C61.0338 39.3762 59.7861 38.0326 58.9128 36.3147C58.049 34.5968 57.6171 32.6197 57.6171 30.3835C57.6171 28.1186 58.0538 26.1319 58.9272 24.4236C59.8101 22.7057 61.0626 21.3669 62.6845 20.4071C64.3065 19.4378 66.2355 18.9532 68.4717 18.9532C70.4007 18.9532 72.0899 19.3035 73.5391 20.0041C74.9883 20.7047 76.1351 21.6884 76.9797 22.9552C77.8243 24.2221 78.2897 25.7097 78.3761 27.418H72.5889C72.4258 26.3143 71.9939 25.4265 71.2933 24.7547C70.6023 24.0733 69.6953 23.7326 68.5725 23.7326C67.6223 23.7326 66.7922 23.9917 66.082 24.51C65.3814 25.0187 64.8343 25.7624 64.4408 26.7414C64.0473 27.7203 63.8506 28.9056 63.8506 30.2972C63.8506 31.708 64.0425 32.9076 64.4264 33.8962C64.8199 34.8847 65.3718 35.6381 66.082 36.1563C66.7922 36.6746 67.6223 36.9337 68.5725 36.9337C69.2731 36.9337 69.9017 36.7898 70.4583 36.5018C71.0246 36.2139 71.49 35.7964 71.8547 35.2494C72.229 34.6927 72.4738 34.0257 72.5889 33.2483H78.3761C78.2801 34.9375 77.8195 36.4251 76.9941 37.7111C76.1783 38.9875 75.0506 39.9857 73.611 40.7055C72.1715 41.4253 70.4679 41.7852 68.5005 41.7852ZM85.3555 49.6453C84.5781 49.6453 83.8487 49.583 83.1673 49.4582C82.4955 49.343 81.9389 49.1943 81.4974 49.0119L82.8794 44.434C83.5992 44.6547 84.247 44.7747 84.8229 44.7939C85.4083 44.8131 85.9122 44.6787 86.3344 44.3908C86.7663 44.1029 87.1166 43.6134 87.3853 42.9224L87.7452 41.9867L79.8131 19.2411H86.2625L90.8404 35.4797H91.0707L95.6918 19.2411H102.184L93.59 43.743C93.1773 44.9331 92.6159 45.9696 91.9057 46.8525C91.2051 47.7451 90.3173 48.4313 89.2424 48.9112C88.1675 49.4006 86.8719 49.6453 85.3555 49.6453ZM104.705 41.3533V11.8703H110.837V22.9552H111.024C111.293 22.3602 111.682 21.7556 112.191 21.1413C112.709 20.5175 113.381 19.9993 114.206 19.5866C115.041 19.1643 116.077 18.9532 117.316 18.9532C118.928 18.9532 120.415 19.3754 121.778 20.22C123.141 21.055 124.23 22.317 125.046 24.0061C125.862 25.6857 126.27 27.7923 126.27 30.326C126.27 32.7925 125.872 34.8751 125.075 36.5738C124.288 38.2629 123.213 39.5442 121.85 40.4175C120.497 41.2813 118.981 41.7132 117.301 41.7132C116.111 41.7132 115.099 41.5164 114.264 41.1229C113.438 40.7294 112.762 40.2352 112.234 39.6402C111.706 39.0355 111.303 38.4261 111.024 37.8119H110.751V41.3533H104.705ZM110.708 30.2972C110.708 31.612 110.89 32.7589 111.255 33.7378C111.62 34.7167 112.147 35.4797 112.838 36.0268C113.529 36.5642 114.369 36.8329 115.358 36.8329C116.356 36.8329 117.2 36.5594 117.891 36.0124C118.582 35.4557 119.105 34.6879 119.461 33.709C119.825 32.7205 120.008 31.5832 120.008 30.2972C120.008 29.0207 119.83 27.8978 119.475 26.9285C119.12 25.9592 118.597 25.201 117.906 24.654C117.215 24.1069 116.365 23.8334 115.358 23.8334C114.36 23.8334 113.515 24.0973 112.824 24.6252C112.143 25.153 111.62 25.9016 111.255 26.8709C110.89 27.8403 110.708 28.9823 110.708 30.2972ZM129.629 41.3533V19.2411H135.574V23.0992H135.804C136.208 21.7268 136.884 20.6903 137.834 19.9897C138.784 19.2795 139.879 18.9244 141.117 18.9244C141.424 18.9244 141.755 18.9436 142.11 18.9819C142.465 19.0203 142.777 19.0731 143.046 19.1403V24.582C142.758 24.4956 142.359 24.4188 141.851 24.3516C141.342 24.2845 140.877 24.2509 140.454 24.2509C139.552 24.2509 138.746 24.4476 138.036 24.8411C137.335 25.225 136.779 25.7624 136.366 26.4534C135.963 27.1445 135.761 27.941 135.761 28.8432V41.3533H129.629ZM145.483 41.3533V19.2411H151.616V41.3533H145.483ZM148.564 16.3907C147.652 16.3907 146.87 16.0884 146.217 15.4837C145.574 14.8695 145.253 14.1353 145.253 13.2811C145.253 12.4366 145.574 11.712 146.217 11.1074C146.87 10.4931 147.652 10.186 148.564 10.186C149.476 10.186 150.253 10.4931 150.896 11.1074C151.549 11.712 151.875 12.4366 151.875 13.2811C151.875 14.1353 151.549 14.8695 150.896 15.4837C150.253 16.0884 149.476 16.3907 148.564 16.3907ZM160.92 19.2411L164.98 26.9717L169.14 19.2411H175.431L169.025 30.2972L175.604 41.3533H169.342L164.98 33.709L160.69 41.3533H154.356L160.92 30.2972L154.586 19.2411H160.92Z" fill="#CBD5E1"/>
<path d="M47.8226 24.0895C47.8226 21.2309 46.9749 18.4364 45.3867 16.0594C43.7985 13.6825 41.5412 11.8299 38.9001 10.736C36.259 9.642 33.3528 9.35576 30.549 9.91347C27.7453 10.4712 25.1699 11.8478 23.1485 13.8692C21.1271 15.8906 19.7505 18.466 19.1928 21.2697C18.6351 24.0735 18.9213 26.9797 20.0153 29.6208C21.1092 32.2619 22.9618 34.5192 25.3387 36.1074C27.7157 37.6957 30.5102 38.5434 33.3688 38.5434V24.0895H47.8226Z" fill="#CBD5E1"/>
<path d="M33.369 0.000244141C30.2055 0.000244103 27.0729 0.623342 24.1503 1.83396C21.2276 3.04458 18.5719 4.81901 16.335 7.05595C14.0981 9.29288 12.3236 11.9485 11.113 14.8712C9.90239 17.7939 9.2793 20.9264 9.2793 24.0899C9.2793 27.2534 9.90239 30.3859 11.113 33.3086C12.3236 36.2313 14.0981 38.887 16.335 41.1239C18.5719 43.3608 21.2276 45.1353 24.1503 46.3459C27.0729 47.5565 30.2055 48.1796 33.369 48.1796V42.9223C30.8959 42.9223 28.447 42.4351 26.1621 41.4887C23.8773 40.5423 21.8012 39.1551 20.0525 37.4064C18.3038 35.6576 16.9166 33.5816 15.9702 31.2967C15.0237 29.0119 14.5366 26.563 14.5366 24.0899C14.5366 21.6168 15.0237 19.1679 15.9702 16.8831C16.9166 14.5983 18.3038 12.5222 20.0525 10.7734C21.8012 9.0247 23.8773 7.63752 26.1621 6.69111C28.447 5.7447 30.8959 5.25758 33.369 5.25758V0.000244141Z" fill="#CBD5E1"/>
<path d="M4.63949 24.2681H0C0.139965 36.914 8.38059 57.0929 33.3687 57.8152V52.9972C22.0647 51.1261 7.39632 48.3859 4.63949 24.2681Z" fill="#CBD5E1"/>
</svg>
