<svg width="1336" height="720" viewBox="0 0 1336 720" fill="none" xmlns="http://www.w3.org/2000/svg">
<path fill-rule="evenodd" clip-rule="evenodd" d="M724.978 594.982L722.643 595.561L720.313 596.169L717.988 596.807L715.665 597.473L713.344 598.167L711.023 598.89L708.7 599.641L706.375 600.421L704.046 601.228L701.711 602.063L699.369 602.925L697.02 603.814L694.661 604.731L692.292 605.674L689.91 606.644L687.516 607.641L685.107 608.663L682.683 609.712L680.241 610.786L677.782 611.886L675.303 613.012L672.803 614.162L670.281 615.337L667.737 616.536L665.168 617.76L662.573 619.007L659.951 620.278L657.302 621.572L654.623 622.89L651.913 624.229L649.172 625.591L646.398 626.974L643.589 628.379L640.746 629.805L637.865 631.251L634.947 632.717L631.989 634.202L628.991 635.707L625.952 637.23L622.87 638.77L619.744 640.328L616.573 641.902L613.355 643.492L610.09 645.098L606.776 646.718L603.413 648.351L599.998 649.998L596.531 651.656L593.011 653.326L589.437 655.007L585.806 656.696L582.12 658.394L578.375 660.1L574.571 661.812L570.708 663.529L566.784 665.251L562.798 666.975L558.748 668.702L554.636 670.428L550.458 672.154L546.214 673.878L541.905 675.598L537.527 677.313L533.082 679.021L528.568 680.722L523.984 682.412L519.33 684.091L514.605 685.757L509.809 687.408L504.941 689.042L500.001 690.657L494.988 692.252L489.902 693.824L484.743 695.372L479.511 696.893L474.205 698.385L468.825 699.847L463.373 701.274L457.847 702.667L452.248 704.021L446.576 705.335L440.832 706.607L435.016 707.833L429.129 709.011L423.171 710.14L417.144 711.215L411.049 712.235L404.886 713.196L398.656 714.097L392.362 714.934L386.004 715.704L379.584 716.405L373.104 717.035L366.565 717.589L359.97 718.066L353.32 718.462L346.618 718.775L339.867 719.002L333.068 719.14L326.225 719.186L319.34 719.137L312.417 718.991L305.458 718.745L298.467 718.396L291.447 717.942L284.401 717.379L277.335 716.706L270.25 715.919L263.152 715.017L256.045 713.997L248.932 712.856L241.819 711.593L234.71 710.205L227.609 708.69L220.522 707.047L213.453 705.273L206.408 703.367L199.391 701.327L192.408 699.153L185.464 696.842L178.565 694.393L171.717 691.806L164.924 689.08L158.193 686.214L151.529 683.208L144.938 680.06L138.426 676.772L131.999 673.343L125.663 669.773L119.423 666.063L113.285 662.214L107.255 658.225L101.34 654.099L95.5438 649.837L89.8733 645.439L84.3339 640.908L78.9311 636.245L73.6702 631.453L68.5569 626.533L63.5962 621.489L58.7932 616.322L54.1531 611.035L49.6806 605.632L45.3803 600.116L41.2566 594.489L37.3141 588.757L33.5566 582.921L29.9882 576.987L26.6127 570.959L23.4331 564.84L20.4531 558.635L17.6752 552.348L15.1027 545.984L12.7376 539.548L10.5824 533.045L8.6389 526.479L6.90886 519.856L5.39373 513.181L4.09453 506.459L3.01202 499.694L2.14709 492.893L1.49965 486.061L1.06987 479.203L0.857635 472.325L0.862126 465.431L1.08262 458.527L1.51801 451.619L2.16682 444.712L3.02755 437.811L4.0982 430.921L5.37661 424.047L6.86037 417.195L8.54679 410.369L10.4332 403.575L12.5161 396.817L14.7926 390.1L17.259 383.428L19.9116 376.806L22.7462 370.238L25.7591 363.729L28.946 357.282L32.3023 350.901L35.8236 344.591L39.5052 338.354L43.3422 332.194L47.3299 326.114L51.4632 320.117L55.7368 314.207L60.1457 308.386L64.6849 302.656L69.3487 297.021L74.1321 291.481L79.0296 286.04L84.0358 280.698L89.1455 275.458L94.353 270.322L99.6533 265.29L105.041 260.364L110.51 255.544L116.056 250.833L121.674 246.229L127.358 241.734L133.103 237.348L138.904 233.072L144.756 228.905L150.654 224.848L156.594 220.899L162.571 217.06L168.579 213.329L174.616 209.706L180.675 206.19L186.753 202.78L192.846 199.476L198.95 196.277L205.06 193.18L211.174 190.186L217.286 187.293L223.394 184.499L229.494 181.804L235.583 179.205L241.658 176.702L247.715 174.292L253.752 171.973L259.765 169.745L265.753 167.606L271.712 165.552L277.641 163.584L283.536 161.699L289.396 159.894L295.218 158.169L301.001 156.521L306.743 154.948L312.442 153.448L318.096 152.02L323.704 150.661L329.265 149.369L334.777 148.143L340.238 146.98L345.649 145.879L351.008 144.837L356.314 143.852L361.565 142.923L366.763 142.048L371.905 141.225L376.991 140.451L382.021 139.726L386.995 139.046L391.912 138.411L396.771 137.818L401.573 137.266L406.317 136.753L411.004 136.278L415.633 135.837L420.205 135.431L424.719 135.057L429.176 134.713L433.576 134.398L437.919 134.111L442.206 133.849L446.436 133.612L450.61 133.397L454.73 133.204L458.794 133.031L462.804 132.876L466.76 132.739L470.663 132.617L474.513 132.51L478.311 132.416L482.057 132.334L485.753 132.263L489.399 132.201L492.995 132.148L496.543 132.102L500.043 132.061L503.496 132.026L506.902 131.995L510.264 131.966L513.58 131.939L516.853 131.913L520.083 131.886L523.27 131.858L526.417 131.828L529.523 131.795L532.59 131.757L535.618 131.714L538.609 131.666L541.563 131.61L544.481 131.547L547.365 131.476L550.215 131.394L553.031 131.303L555.816 131.2L558.57 131.086L561.294 130.959L563.989 130.818L566.656 130.663L569.297 130.494L571.911 130.308L574.5 130.105L577.065 129.885L579.608 129.647L582.128 129.39L584.628 129.114L587.108 128.816L589.569 128.498L592.013 128.158L594.441 127.794L596.853 127.408L599.25 126.996L601.635 126.56L604.007 126.098L606.369 125.608L608.721 125.092L611.064 124.547L613.401 123.972L615.731 123.369L618.057 122.736L620.38 122.075L622.701 121.385L625.022 120.666L627.345 119.92L629.669 119.145L631.998 118.342L634.332 117.512L636.672 116.654L639.02 115.769L641.377 114.856L643.745 113.917L646.124 112.951L648.517 111.959L650.923 110.941L653.345 109.896L655.784 108.826L658.24 107.73L660.716 106.609L663.212 105.462L665.73 104.291L668.271 103.096L670.836 101.876L673.427 100.632L676.044 99.3652L678.689 98.0747L681.363 96.7612L684.068 95.4251L686.804 94.0669L689.573 92.6869L692.376 91.2855L695.214 89.8631L698.089 88.4202L701.001 86.9574L703.952 85.4749L706.943 83.9735L709.976 82.4537L713.051 80.9159L716.17 79.3609L719.334 77.7892L722.544 76.2015L725.801 74.5985L729.107 72.9808L732.463 71.3494L735.869 69.7048L739.328 68.0481L742.839 66.3799L746.405 64.7012L750.026 63.0129L753.704 61.316L757.44 59.6114L761.234 57.9004L765.087 56.1838L769.002 54.4629L772.978 52.7388L777.017 51.0128L781.12 49.286L785.287 47.5599L789.52 45.8358L793.819 44.115L798.186 42.3991L802.62 40.6896L807.123 38.988L811.696 37.2959L816.339 35.615L821.052 33.9469L825.837 32.2936L830.693 30.6567L835.622 29.0381L840.623 27.4398L845.698 25.8638L850.845 24.312L856.066 22.7866L861.36 21.2897L866.728 19.8234L872.169 18.3901L877.683 16.9919L883.271 15.6313L888.931 14.3106L894.664 13.0322L900.468 11.7987L906.344 10.6124L912.29 9.47606L918.306 8.39218L924.391 7.36343L930.543 6.39247L936.762 5.482L943.046 4.63475L949.394 3.85348L955.804 3.14097L962.275 2.50003L968.804 1.93346L975.391 1.4441L982.032 1.03477L988.726 0.708319L995.469 0.467584L1002.26 0.315395L1009.1 0.254569L1015.98 0.287907L1022.89 0.418194L1029.85 0.648183L1036.83 0.980584L1043.85 1.41809L1050.89 1.96333L1057.95 2.61889L1065.04 3.38729L1072.13 4.271L1079.24 5.27239L1086.35 6.39379L1093.46 7.63742L1100.57 9.00541L1107.68 10.4998L1114.77 12.1225L1121.84 13.8754L1128.89 15.7601L1135.91 17.7782L1142.9 19.9312L1149.85 22.2204L1156.75 24.6469L1163.61 27.2117L1170.41 29.9156L1177.15 32.7595L1183.83 35.7437L1190.43 38.8686L1196.96 42.1345L1203.4 45.5412L1209.75 49.0885L1216.01 52.7762L1222.16 56.6035L1228.21 60.5697L1234.14 64.6738L1239.96 68.9146L1245.65 73.2908L1251.21 77.8008L1256.63 82.4427L1261.92 87.2145L1267.05 92.1142L1272.04 97.1391L1276.87 102.287L1281.53 107.555L1286.03 112.939L1290.36 118.438L1294.51 124.047L1298.49 129.763L1302.27 135.582L1305.87 141.5L1309.28 147.514L1312.49 153.619L1315.5 159.811L1318.31 166.085L1320.92 172.437L1323.31 178.861L1325.5 185.354L1327.48 191.91L1329.24 198.525L1330.79 205.192L1332.13 211.907L1333.24 218.665L1334.14 225.461L1334.83 232.288L1335.29 239.142L1335.54 246.018L1335.57 252.91L1335.38 259.812L1334.98 266.72L1334.37 273.628L1333.54 280.53L1332.5 287.422L1331.26 294.299L1329.8 301.155L1328.15 307.985L1326.3 314.784L1324.24 321.549L1322 328.273L1319.56 334.952L1316.94 341.582L1314.13 348.159L1311.15 354.678L1307.99 361.135L1304.66 367.527L1301.16 373.849L1297.51 380.098L1293.69 386.27L1289.73 392.363L1285.62 398.373L1281.37 404.297L1276.98 410.132L1272.46 415.877L1267.82 421.528L1263.05 427.083L1258.17 432.54L1253.18 437.897L1248.09 443.153L1242.9 448.306L1237.61 453.355L1232.24 458.298L1226.78 463.135L1221.25 467.864L1215.64 472.485L1209.97 476.997L1204.23 481.4L1198.44 485.694L1192.59 489.878L1186.7 493.953L1180.77 497.919L1174.8 501.775L1168.79 505.523L1162.76 509.164L1156.71 512.697L1150.63 516.123L1144.54 519.444L1138.44 522.66L1132.33 525.773L1126.21 528.783L1120.1 531.692L1113.99 534.502L1107.89 537.213L1101.8 539.827L1095.72 542.345L1089.66 544.77L1083.62 547.103L1077.61 549.345L1071.61 551.499L1065.65 553.566L1059.72 555.547L1053.82 557.446L1047.95 559.263L1042.12 561.001L1036.33 562.661L1030.58 564.246L1024.88 565.757L1019.22 567.197L1013.6 568.567L1008.03 569.869L1002.51 571.105L997.043 572.278L991.624 573.389L986.257 574.441L980.943 575.434L975.682 576.372L970.476 577.255L965.325 578.087L960.23 578.868L955.191 579.601L950.208 580.288L945.282 580.93L940.414 581.529L935.603 582.088L930.849 582.607L926.153 583.088L921.515 583.534L916.934 583.946L912.411 584.325L907.945 584.674L903.536 584.993L899.184 585.285L894.888 585.55L890.649 585.792L886.466 586.01L882.338 586.206L878.265 586.382L874.246 586.54L870.281 586.68L866.37 586.804L862.512 586.913L858.706 587.009L854.951 587.093L851.247 587.166L847.593 587.229L843.989 587.284L840.434 587.331L836.926 587.372L833.466 587.408L830.052 587.44L826.683 587.469L823.36 587.496L820.08 587.523L816.844 587.549L813.649 587.577L810.496 587.606L807.384 587.639L804.311 587.676L801.276 587.718L798.28 587.765L795.32 587.82L792.396 587.882L789.507 587.952L786.652 588.031L783.83 588.121L781.04 588.222L778.281 588.334L775.552 588.459L772.853 588.598L770.181 588.75L767.537 588.918L764.919 589.101L762.326 589.301L759.757 589.518L757.211 589.753L754.687 590.007L752.184 590.28L749.7 590.574L747.236 590.889L744.79 591.226L742.36 591.586L739.945 591.969L737.546 592.376L735.159 592.808L732.785 593.266L730.421 593.751L728.068 594.263L725.723 594.804L724.978 594.982Z" fill="white" fill-opacity="0.08"/>
</svg>
